# xmcd
#
# Track frame offsets:
#	150
#	11966
#	29060
#	44767
#	61788
#	81684
#	100504
#	127025
#	150964
#	170339
#	184269
#
# Disc length: 2674 seconds
#
# Revision: 1
# Processed by: cddbd v1.5.2PL0 Copyright (c) Steve Scherf et al.
# Submitted via: audiograbber 1.83.01
#
DISCID=930a700b
DTITLE=Fredi - Muuttuvat Laulut
DYEAR=2005
DGENRE=Pop
TTITLE0=Sinua, Sinua Rakastan
TTITLE1=Neljän Tuulen Tiellä
TTITLE2=Auringon Lapset
TTITLE3=Myrskyluodon Maija
TTITLE4=Toiset Meistä
TTITLE5=Siks Oon Mä Suruinen
TTITLE6=Joutsenlaulu
TTITLE7=Syyslaulu
TTITLE8=Liljankukka
TTITLE9=Muuttuvat Laulut
TTITLE10=Lennä Mun Lempeni Laulu
EXTD=TR.
EXTT0=
EXTT1=
EXTT2=
EXTT3=
EXTT4=
EXTT5=
EXTT6=
EXTT7=
EXTT8=
EXTT9=
EXTT10=
PLAYORDER=
